<svg xmlns="http://www.w3.org/2000/svg" viewBox="0 0 73.18 26.31"><defs><style>.cls-1,.cls-2,.cls-5{fill:#454646;}.cls-2{font-size:24.19px;letter-spacing:-0.01em;}.cls-2,.cls-5{font-family:MS-Gothic, MS Gothic;}.cls-3{fill:#878787;}.cls-4{fill:#be1622;}.cls-5{font-size:3.48px;letter-spacing:0.21em;}.cls-6{letter-spacing:0.2em;}.cls-7{letter-spacing:0.21em;}.cls-8{letter-spacing:0.23em;}.cls-9{letter-spacing:0.15em;}.cls-10{letter-spacing:0.16em;}.cls-11{letter-spacing:0.2em;}.cls-12{letter-spacing:0.23em;}.cls-13{letter-spacing:0.22em;}.cls-14{letter-spacing:0.23em;}.cls-15{letter-spacing:0.16em;}.cls-16{letter-spacing:0.16em;}.cls-17{letter-spacing:0.17em;}.cls-18{letter-spacing:0.2em;}</style></defs><g id="Capa_2" data-name="Capa 2"><g id="Capa_1-2" data-name="Capa 1"><path class="cls-1" d="M26.54,20.57V11h1.81v1.36a4.63,4.63,0,0,1,3.24-1.62,3.11,3.11,0,0,1,.65.05L32,12.64a5.08,5.08,0,0,0-.62,0,3.31,3.31,0,0,0-2.06.72,2.79,2.79,0,0,0-1,2.34v4.91Z"/><path class="cls-1" d="M37.75,20.79a5.61,5.61,0,0,1-2.88-.68,4.11,4.11,0,0,1-1.67-1.79,5.8,5.8,0,0,1-.54-2.51,5.5,5.5,0,0,1,.63-2.68A4.37,4.37,0,0,1,35,11.39a5.26,5.26,0,0,1,2.55-.62A4.12,4.12,0,0,1,40.84,12a5,5,0,0,1,1.07,3.44c0,1-1.35.94-1.35.94h-6l.06.34a3.45,3.45,0,0,0,1.06,2.1,3.31,3.31,0,0,0,2.17.66,7.55,7.55,0,0,0,1.81-.18l.54-.17c.18-.06.34-.13.5-.2l.27.63.24.56-.46.21c-.23.09-.48.17-.75.25A8.8,8.8,0,0,1,37.75,20.79Zm-.22-8.58a2.78,2.78,0,0,0-3,2.73l0,.32h5.62V15a2.72,2.72,0,0,0-.68-2.14A2.82,2.82,0,0,0,37.53,12.21Z"/><path class="cls-1" d="M48,20.79a4.9,4.9,0,0,1-2.38-.61,4.64,4.64,0,0,1-1.74-1.75,5.2,5.2,0,0,1-.66-2.66,5.81,5.81,0,0,1,.58-2.65,4.22,4.22,0,0,1,1.62-1.73,4.88,4.88,0,0,1,2.5-.62,4.17,4.17,0,0,1,1.54.29,4.35,4.35,0,0,1,1.22.71C51,12,51.85,11,51.85,11h1.71v9.54H51.87l0-.88s-.24-.14-1.1.46A6.26,6.26,0,0,1,48,20.79Zm.22-8.56a2.73,2.73,0,0,0-2.26,1,4,4,0,0,0-.79,2.55,4.09,4.09,0,0,0,.77,2.57,2.76,2.76,0,0,0,2.28,1,2.87,2.87,0,0,0,2.18-1A3.48,3.48,0,0,0,51.24,16v-.16a4.06,4.06,0,0,0-.4-1.83,3.21,3.21,0,0,0-1.11-1.27A2.78,2.78,0,0,0,48.18,12.23Z"/><path class="cls-1" d="M55.14,25.92V11h1.72v.49a.54.54,0,0,0,.75.26,8.33,8.33,0,0,1,3.32-1A4.35,4.35,0,0,1,64.18,12a5.13,5.13,0,0,1,1.24,3.71,5.67,5.67,0,0,1-.61,2.66,4.41,4.41,0,0,1-4,2.38,4.81,4.81,0,0,1-2.09-.42c-.29-.14-.77-.4-1.17-.62a.47.47,0,0,0-.7.41l0,5.76Zm5.33-13.67a2.93,2.93,0,0,0-1.52.42,3.07,3.07,0,0,0-1.13,1.21,3.74,3.74,0,0,0-.42,1.8v.16a3.88,3.88,0,0,0,.42,1.82,3.21,3.21,0,0,0,1.11,1.25,2.9,2.9,0,0,0,1.54.44,2.75,2.75,0,0,0,2.27-1,4,4,0,0,0,.78-2.53,4.05,4.05,0,0,0-.77-2.57A2.75,2.75,0,0,0,60.47,12.25Z"/><path class="cls-1" d="M69.46,20.79a8.87,8.87,0,0,1-2.12-.27A4.92,4.92,0,0,1,66,20l.57-1.34a5.5,5.5,0,0,0,2.89.79c1.63,0,2-.7,2-1.28A1.06,1.06,0,0,0,71,17.3a6,6,0,0,0-1.32-.61l-.83-.31a6.24,6.24,0,0,1-2-1.2,2.31,2.31,0,0,1-.68-1.74,2.24,2.24,0,0,1,1-1.94,4.69,4.69,0,0,1,2.75-.73,7.47,7.47,0,0,1,1.71.19,4.39,4.39,0,0,1,1,.35L72,12.64a3.14,3.14,0,0,0-.71-.32,4.71,4.71,0,0,0-1.49-.22c-1.53,0-1.85.66-1.85,1.23a1.2,1.2,0,0,0,.55,1,7.31,7.31,0,0,0,1.43.63l.67.24a5.71,5.71,0,0,1,2,1.19,2.21,2.21,0,0,1,.6,1.61,2.28,2.28,0,0,1-1,2A4.73,4.73,0,0,1,69.46,20.79Z"/><text class="cls-2" transform="translate(13.95 20.79)">k</text><polygon class="cls-3" points="13.07 16.96 14.42 18.19 0.3 26.03 0 25.54 13.07 16.96"/><polygon class="cls-4" points="14.42 18.19 11.89 18.19 12.71 2.57 13.28 2.57 14.42 18.19"/><polygon class="cls-4" points="12.71 2.57 13.77 2.17 13.1 3.02 12.71 2.57"/><text class="cls-5" transform="translate(15.44 25.83)">E<tspan class="cls-6" x="2.46" y="0">S</tspan><tspan class="cls-7" x="4.88" y="0">T</tspan><tspan class="cls-8" x="7.36" y="0">U</tspan><tspan class="cls-9" x="9.89" y="0">D</tspan><tspan class="cls-10" x="12.17" y="0">I</tspan><tspan class="cls-11" x="14.46" y="0">O </tspan><tspan class="cls-12" x="19.33" y="0">C</tspan><tspan class="cls-13" x="21.86" y="0">R</tspan><tspan class="cls-14" x="24.35" y="0">E</tspan><tspan class="cls-15" x="26.89" y="0">A</tspan><tspan class="cls-16" x="29.19" y="0">T</tspan><tspan class="cls-17" x="31.49" y="0">I</tspan><tspan class="cls-18" x="33.83" y="0">V</tspan><tspan class="cls-11" x="36.28" y="0">O</tspan></text></g></g></svg>